<svg width="18" height="21" viewBox="0 0 18 21" fill="none" xmlns="http://www.w3.org/2000/svg">
<g clip-path="url(#clip0_2_190)">
<path d="M17.2183 11.4186C17.2183 11.8204 17.0807 12.1589 16.8056 12.4342L9.54419 19.6998C9.25418 19.9751 8.91583 20.1128 8.52915 20.1128C8.14991 20.1128 7.81528 19.9751 7.52527 19.6998L6.68871 18.8628C6.40614 18.5801 6.26485 18.2415 6.26485 17.8472C6.26485 17.4528 6.40614 17.1143 6.68871 16.8315L9.95689 13.5615H2.10433C1.71765 13.5615 1.40347 13.4219 1.1618 13.1429C0.920123 12.8639 0.799286 12.5272 0.799286 12.1329V10.7043C0.799286 10.31 0.920123 9.97328 1.1618 9.69427C1.40347 9.41525 1.71765 9.27574 2.10433 9.27574H9.95689L6.68871 5.99449C6.40614 5.72663 6.26485 5.39181 6.26485 4.99002C6.26485 4.58824 6.40614 4.25342 6.68871 3.98556L7.52527 3.14851C7.80785 2.86577 8.14247 2.7244 8.52915 2.7244C8.92327 2.7244 9.26161 2.86577 9.54419 3.14851L16.8056 10.4141C17.0807 10.6745 17.2183 11.0094 17.2183 11.4186Z" fill="white"/>
</g>
<defs>
<clipPath id="clip0_2_190">
<rect width="17.15" height="20" fill="white" transform="matrix(1 0 0 -1 0.79071 20.7043)"/>
</clipPath>
</defs>
</svg>
